<svg height="512pt" viewBox="1 1 511.99998 511.99998" width="512pt" xmlns="http://www.w3.org/2000/svg"><path d="m512 256c0 141.386719-114.613281 256-256 256-134.019531 0-243.984375-102.984375-255.082031-234.140625-.605469-7.199219-.917969-14.492187-.917969-21.859375 0-14.867188 1.265625-29.445312 3.710938-43.613281 20.699218-120.613281 125.773437-212.386719 252.289062-212.386719 141.386719 0 256 114.613281 256 256zm0 0" fill="#4c86cc"/><g fill="#e6e6e6"><path d="m511.996094 199.738281c0-14.125-8.660156-26.222656-20.957032-31.289062 3.902344-5.515625 6.203126-12.242188 6.203126-19.511719 0-13.019531-7.355469-24.3125-18.136719-29.96875 1.847656-4.179688 2.882812-8.800781 2.882812-13.664062 0-18.273438-14.488281-33.152344-32.601562-33.800782-2.144531-15.585937-14.898438-27.78125-30.75-29.0625-2.304688-16.4375-16.417969-29.085937-33.492188-29.085937-5.8125 0-11.28125 1.46875-16.058593 4.050781-6.074219-9.027344-16.382813-14.964844-28.082032-14.964844-15.257812 0-28.148437 10.097656-32.367187 23.976563-1.722657-.273438-3.484375-.414063-5.277344-.414063-11.992187 0-22.515625 6.242188-28.523437 15.652344-3.636719-1.335938-7.5625-2.0625-11.660157-2.0625-18.683593 0-33.832031 15.144531-33.832031 33.828125 0 15.875 10.933594 29.1875 25.679688 32.835937.1875 3.222657.824218 6.324219 1.851562 9.242188-14.847656 3.578125-25.882812 16.9375-25.882812 32.882812 0 18.683594 15.148437 33.832032 33.832031 33.832032 18.683593 0 33.832031-15.148438 33.832031-33.832032 0-3.933593 11.792969 5.949219 10.5625 2.4375 8.503906-2.046874 3.277344-20.957031 7.921875-28.074218-.347656 1.933594-.535156 3.925781-.535156 5.960937 0 18.683594 15.144531 33.832031 33.828125 33.832031 3.4375 0 6.75-.515624 9.871094-1.46875.195312 6.429688 2.179687 12.402344 5.480468 17.445313-6.625 3.875-11.8125 9.933594-14.574218 17.191406-3.949219-1.617187-8.269532-2.515625-12.804688-2.515625-18.683594 0-33.828125 15.148438-33.828125 33.832032 0 18.683593 15.144531 33.832031 33.828125 33.832031 14.449219 0 26.773438-9.0625 31.625-21.808594 3.949219 1.617187 8.269531 2.515625 12.800781 2.515625.851563 0 1.691407-.042969 2.527344-.101562-.375 2.015624-.578125 4.089843-.578125 6.214843 0 18.683594 15.144531 33.828125 33.828125 33.828125 16.292969 0 29.890625-11.515625 33.105469-26.851562 6.199218 7.765625 15.742187 12.746094 26.453125 12.746094 18.683593 0 33.828125-15.144532 33.828125-33.828126 0-6.164062-1.65625-11.9375-4.535156-16.914062 2.878906-4.980469 4.535156-10.753906 4.535156-16.917969zm-136.933594-119.65625c-.023438-.207031-.050781-.414062-.078125-.617187.269531.082031.539063.15625.8125.234375-.246094.125-.492187.25-.734375.382812zm0 0"/><path d="m200.566406 109.03125c0 18.6875-15.144531 33.832031-33.828125 33.832031-18.683593 0-33.832031-15.144531-33.832031-33.832031 0-18.683594 15.148438-33.828125 33.832031-33.828125 18.683594 0 33.828125 15.144531 33.828125 33.828125zm0 0"/><path d="m391.785156 361.664062c0 18.683594-15.148437 33.832032-33.832031 33.832032s-33.828125-15.148438-33.828125-33.832032c0-18.683593 15.144531-33.832031 33.828125-33.832031s33.832031 15.148438 33.832031 33.832031zm0 0"/><path d="m444.03125 345.992188c0 18.683593-15.148438 33.828124-33.832031 33.828124-18.683594 0-33.832031-15.144531-33.832031-33.828124 0-18.6875 15.148437-33.832032 33.832031-33.832032 18.683593 0 33.832031 15.144532 33.832031 33.832032zm0 0"/><path d="m428.355469 397.191406c0 18.683594-15.144531 33.828125-33.832031 33.828125-18.683594 0-33.828126-15.144531-33.828126-33.828125s15.144532-33.832031 33.828126-33.832031c18.6875 0 33.832031 15.148437 33.832031 33.832031zm0 0"/></g><path d="m389.871094 194.539062-71.40625 71.398438c-.324219.332031-.667969.667969-.984375 1.023438-9.140625 9.351562-16.457031 20.207031-21.691407 31.972656-5.433593 12.195312-8.640624 25.378906-9.363281 38.933594-.707031 13.550781-3.90625 26.707031-9.328125 38.890624-5.425781 12.214844-13.09375 23.4375-22.707031 33.050782l-32.234375 32.246094-54.34375 54.34375h-.011719c-8.496093-3.113282-16.78125-6.664063-24.828125-10.636719-40.542968-19.976563-75.035156-50.375-99.976562-87.699219-6.195313-9.265625-11.796875-18.964844-16.757813-29.035156-3.972656-8.046875-7.523437-16.332032-10.636719-24.828125l54.34375-54.355469 32.246094-32.246094c9.601563-9.589844 20.804688-17.25 32.996094-22.671875.023438-.011719.03125-.023437.054688-.03125 12.183593-5.414062 25.335937-8.613281 38.878906-9.332031 26.644531-1.390625 51.839844-12.433594 70.917968-31.042969.34375-.316406.691407-.660156 1.023438-.992187l71.398438-71.398438zm0 0" fill="#39d365"/><path d="m336.800781 141.457031-71.40625 71.410157c-19.195312 19.195312-41.035156 34.398437-61.285156 42.683593-10.132813 4.148438-20.65625 10.011719-31.042969 17.25-10.386718 7.242188-20.636718 15.84375-30.238281 25.433594l-99.832031 99.828125c-6.195313-9.265625-11.796875-18.964844-16.757813-29.035156-3.972656-8.046875-7.523437-16.332032-10.636719-24.828125l86.589844-86.601563c9.601563-9.589844 20.804688-17.25 32.996094-22.671875 12.195312-5.433593 25.382812-8.644531 38.933594-9.363281 27.117187-1.421875 52.746094-12.84375 71.941406-32.035156l71.398438-71.398438zm0 0" fill="#28b24b"/><path d="m382.484375 201.921875-72.410156-72.40625c-4.078125-4.082031-4.078125-10.695313 0-14.777344 4.082031-4.082031 10.699219-4.082031 14.777343 0l72.40625 72.40625c4.082032 4.082031 4.082032 10.699219 0 14.777344-4.078124 4.082031-10.695312 4.082031-14.773437 0zm0 0" fill="#28b24b"/><path d="m356.621094 227.78125-72.40625-72.40625c-4.078125-4.078125-4.078125-10.695312 0-14.777344 4.082031-4.078125 10.695312-4.078125 14.777344 0l72.40625 72.40625c4.082031 4.082032 4.082031 10.699219 0 14.777344-4.078126 4.082031-10.695313 4.082031-14.777344 0zm0 0" fill="#28b24b"/><path d="m248.71875 358.886719c-.75 2.007812-1.851562 3.773437-3.324219 5.242187-11.636719 11.636719-41.921875.238282-67.625-25.46875-15.429687-15.425781-25.699219-32.492187-28.941406-46.199218-2.167969-9.140626-1.199219-16.769532 3.464844-21.433594 1.21875-1.21875 2.652343-2.164063 4.246093-2.890625-7.644531-10.675781-14.761718-21.765625-21.300781-33.238281 12.183594-5.417969 25.34375-8.617188 38.886719-9.332032.894531-.054687 1.789062-.105468 2.683594-.171875 12.648437-.972656 24.933594-4.128906 36.359375-9.226562 6.050781 8.296875 12.425781 16.328125 19.128906 24.078125 18.847656 21.863281 40.167969 41.53125 63.53125 58.582031-.011719.03125-.027344.074219-.042969.105469-5.429687 12.199218-8.636718 25.378906-9.355468 38.9375-.003907.15625-.011719.296875-.027344.441406-.753906 13.390625-3.945313 26.394531-9.300782 38.445312-9.746093-5.550781-19.210937-11.527343-28.382812-17.871093zm0 0" fill="#ff2751"/><path d="m232.296875 240.246094c-9.457031 6.355468-18.980469 11.535156-28.1875 15.300781-10.132813 4.148437-20.652344 10.011719-31.039063 17.253906-8.253906 5.753907-16.425781 12.359375-24.242187 19.660157-2.167969-9.140626-1.199219-16.769532 3.464844-21.433594 1.21875-1.21875 2.652343-2.164063 4.246093-2.890625-7.644531-10.675781-14.761718-21.765625-21.300781-33.238281 12.183594-5.417969 25.34375-8.617188 38.886719-9.332032 13.59375-.710937 26.8125-3.9375 39.042969-9.398437 6.050781 8.296875 12.425781 16.328125 19.128906 24.078125zm0 0" fill="#d10f46"/><path d="m222.15625 442.054688-54.34375 54.34375h-.011719c-8.496093-3.113282-16.78125-6.664063-24.828125-10.636719-40.542968-19.976563-75.035156-50.375-99.976562-87.699219-6.195313-9.265625-11.796875-18.964844-16.757813-29.035156-3.972656-8.046875-7.523437-16.332032-10.636719-24.828125l54.34375-54.355469zm0 0" fill="#ff2751"/><path d="m110.582031 330.480469-67.585937 67.582031c-6.195313-9.265625-11.796875-18.964844-16.757813-29.035156-3.972656-8.046875-7.523437-16.332032-10.636719-24.828125l54.34375-54.355469zm0 0" fill="#d10f46"/><path d="m143.097656 485.648438c-.039062.042968-.082031.082031-.125.113281-50.613281-24.941407-91.792968-66.121094-116.734375-116.734375.03125-.042969.070313-.085938.113281-.125 14.597657-14.589844 36.539063-18.578125 58.691407-12.882813 15.664062 4.011719 31.410156 12.839844 44.753906 26.183594 32.234375 32.234375 38.191406 78.542969 13.300781 103.445313zm0 0" fill="#f4ca19"/><path d="m85.042969 356.019531-42.046875 42.042969c-6.195313-9.265625-11.796875-18.964844-16.757813-29.035156.03125-.042969.070313-.085938.113281-.125 14.597657-14.589844 36.539063-18.578125 58.691407-12.882813zm0 0" fill="#e29b0e"/><path d="m465.824219 105.28125-38.78125 38.78125c-5.785157 5.785156-15.167969 5.785156-20.953125 0l-38.15625-38.15625c-5.785156-5.785156-5.785156-15.167969 0-20.953125l38.785156-38.78125zm0 0" fill="#e29b0e"/><path d="m445.382812 125.722656-18.339843 18.339844c-5.785157 5.785156-15.167969 5.785156-20.953125 0l-28.550782-28.550781c-5.785156-5.785157-5.785156-15.167969 0-20.953125l18.339844-18.339844zm0 0" fill="#f4ca19"/><path d="m473 126.539062c-3.953125 2.164063-8.828125 1.632813-12.332031-1.207031-14.96875-12.132812-29.148438-25.039062-42.558594-38.730469-11.007813-11.230468-21.484375-22.976562-31.445313-35.273437-2.835937-3.5-3.367187-8.378906-1.203124-12.332031 8.867187-16.238282 21.417968-28.792969 37.667968-37.664063 3.953125-2.164062 8.828125-1.632812 12.328125 1.203125 12.273438 9.953125 24.015625 20.421875 35.230469 31.417969 13.699219 13.417969 26.621094 27.609375 38.773438 42.585937 2.839843 3.503907 3.371093 8.378907 1.207031 12.332032-8.875 16.246094-21.429688 28.800781-37.667969 37.667968zm0 0" fill="#e29b0e"/><path d="m473 126.539062c-3.953125 2.164063-8.828125 1.632813-12.332031-1.207031-14.96875-12.132812-29.148438-25.039062-42.558594-38.730469-3.21875-3.738281-6.390625-7.542968-9.507813-11.386718-2.949218-3.640625-3.496093-8.710938-1.242187-12.824219 9.214844-16.882813 22.269531-29.9375 39.160156-39.160156 4.117188-2.253907 9.183594-1.707031 12.820313 1.25 3.835937 3.109375 7.617187 6.257812 11.347656 9.46875 13.699219 13.417969 26.621094 27.613281 38.777344 42.589843 2.835937 3.5 3.367187 8.378907 1.203125 12.332032-8.875 16.246094-21.429688 28.800781-37.667969 37.667968zm0 0" fill="#f4ca19"/></svg>