<svg height="512pt" viewBox="0 -135 512 512" width="512pt" xmlns="http://www.w3.org/2000/svg"><path d="m9.992188 101.78125s51.46875 58.546875 114.957031 58.546875c63.492187 0 114.960937-58.546875 114.960937-58.546875s-51.46875-58.550781-114.960937-58.550781c-63.488281 0-114.957031 58.550781-114.957031 58.550781zm0 0" fill="#fff"/><path d="m183.5 101.78125c0 32.332031-26.214844 58.546875-58.550781 58.546875-32.332031 0-58.546875-26.214844-58.546875-58.546875 0-32.335938 26.214844-58.550781 58.546875-58.550781 32.335937 0 58.550781 26.214843 58.550781 58.550781zm0 0" fill="#bddbff"/><path d="m272.089844 101.78125s51.46875 58.546875 114.960937 58.546875c63.488281 0 114.957031-58.546875 114.957031-58.546875s-51.46875-58.550781-114.957031-58.550781c-63.492187 0-114.960937 58.550781-114.960937 58.550781zm0 0" fill="#fff"/><path d="m445.597656 101.78125c0 32.332031-26.214844 58.546875-58.546875 58.546875-32.335937 0-58.550781-26.214844-58.550781-58.546875 0-32.335938 26.214844-58.550781 58.550781-58.550781 32.332031 0 58.546875 26.214843 58.546875 58.550781zm0 0" fill="#bddbff"/><path d="m141.859375 101.78125c0 9.335938-7.570313 16.910156-16.910156 16.910156-9.335938 0-16.910157-7.574218-16.910157-16.910156 0-9.339844 7.574219-16.910156 16.910157-16.910156 9.339843 0 16.910156 7.570312 16.910156 16.910156zm0 0" fill="#57565c"/><path d="m96.402344 101.78125c0-27.152344 18.480468-49.984375 43.546875-56.609375-4.785157-1.265625-9.8125-1.941406-15-1.941406-32.332031 0-58.546875 26.214843-58.546875 58.550781 0 32.332031 26.214844 58.546875 58.546875 58.546875 5.1875 0 10.214843-.675781 15-1.9375-25.066407-6.625-43.546875-29.460937-43.546875-56.609375zm0 0" fill="#57a4ff"/><path d="m118.941406 75.0625c0 11.4375-9.273437 20.707031-20.707031 20.707031-11.4375 0-20.710937-9.269531-20.710937-20.707031s9.273437-20.707031 20.710937-20.707031c11.433594 0 20.707031 9.269531 20.707031 20.707031zm0 0" fill="#fff"/><path d="m358.5 101.78125c0-27.152344 18.480469-49.984375 43.546875-56.609375-4.785156-1.265625-9.8125-1.941406-15-1.941406-32.332031 0-58.546875 26.214843-58.546875 58.550781 0 32.332031 26.214844 58.546875 58.546875 58.546875 5.1875 0 10.214844-.675781 15-1.9375-25.066406-6.625-43.546875-29.460937-43.546875-56.609375zm0 0" fill="#57a4ff"/><path d="m403.960938 101.78125c0 9.335938-7.574219 16.910156-16.910157 16.910156-9.339843 0-16.910156-7.574218-16.910156-16.910156 0-9.339844 7.570313-16.910156 16.910156-16.910156 9.335938 0 16.910157 7.570312 16.910157 16.910156zm0 0" fill="#57565c"/><path d="m381.039062 75.0625c0 11.4375-9.269531 20.707031-20.707031 20.707031s-20.710937-9.269531-20.710937-20.707031 9.273437-20.707031 20.710937-20.707031 20.707031 9.269531 20.707031 20.707031zm0 0" fill="#fff"/><path d="m504.5 209.667969c0 13.851562-11.226562 25.078125-25.078125 25.078125s-25.078125-11.226563-25.078125-25.078125c0-13.851563 25.078125-46.492188 25.078125-46.492188s25.078125 32.640625 25.078125 46.492188zm0 0" fill="#bddbff"/><path d="m57.660156 209.667969c0 13.851562-11.230468 25.078125-25.082031 25.078125-13.847656 0-25.078125-11.226563-25.078125-25.078125 0-13.851563 25.078125-46.492188 25.078125-46.492188s25.082031 32.640625 25.082031 46.492188zm0 0" fill="#bddbff"/><path d="m39.992188 101.78125s43.554687-49.546875 99.957031-57.484375c-4.90625-.691406-9.914063-1.066406-15-1.066406-63.488281 0-114.957031 58.546875-114.957031 58.546875s51.46875 58.550781 114.957031 58.550781c5.085937 0 10.09375-.378906 15-1.066406-56.402344-7.933594-99.957031-57.480469-99.957031-57.480469zm0 0" fill="#e8e8ea"/><path d="m302.089844 101.78125s43.554687-49.546875 99.960937-57.484375c-4.910156-.691406-9.917969-1.066406-15-1.066406-63.492187 0-114.960937 58.546875-114.960937 58.546875s51.46875 58.550781 114.960937 58.550781c5.082031 0 10.089844-.378906 15-1.066406-56.40625-7.933594-99.960937-57.480469-99.960937-57.480469zm0 0" fill="#e8e8ea"/><path d="m484.339844 209.667969c0-6.015625 4.730468-15.570313 10.082031-24.460938-6.972656-11.582031-15-22.03125-15-22.03125s-25.082031 32.640625-25.082031 46.492188c0 13.851562 11.230468 25.078125 25.082031 25.078125 5.625 0 10.816406-1.851563 15-4.976563-6.121094-4.574219-10.082031-11.875-10.082031-20.101562zm0 0" fill="#57a4ff"/><path d="m37.5 209.667969c0-6.015625 4.730469-15.570313 10.078125-24.460938-6.972656-11.582031-15-22.03125-15-22.03125s-25.078125 32.640625-25.078125 46.492188c0 13.851562 11.226562 25.078125 25.078125 25.078125 5.625 0 10.816406-1.851563 15-4.976563-6.117187-4.574219-10.078125-11.875-10.078125-20.101562zm0 0" fill="#57a4ff"/><path d="m485.367188 158.605469-5.945313-7.742188-5.949219 7.742188c-4.445312 5.789062-26.628906 35.453125-26.628906 51.0625 0 17.964843 14.613281 32.578125 32.578125 32.578125s32.578125-14.613282 32.578125-32.578125c0-15.609375-22.183594-45.273438-26.632812-51.0625zm-5.945313 68.640625c-9.695313 0-17.582031-7.882813-17.582031-17.578125 0-5.75 8.316406-20.519531 17.582031-33.789063 9.265625 13.269532 17.578125 28.039063 17.578125 33.789063 0 9.695312-7.886719 17.578125-17.578125 17.578125zm0 0"/><path d="m32.578125 150.863281-5.945313 7.742188c-4.449218 5.789062-26.632812 35.453125-26.632812 51.0625 0 17.964843 14.613281 32.578125 32.578125 32.578125s32.582031-14.613282 32.582031-32.578125c0-15.609375-22.1875-45.273438-26.632812-51.0625zm0 76.382813c-9.691406 0-17.578125-7.882813-17.578125-17.578125 0-5.75 8.3125-20.519531 17.578125-33.789063 9.265625 13.265625 17.582031 28.039063 17.582031 33.789063 0 9.695312-7.886718 17.578125-17.582031 17.578125zm0 0"/><path d="m198.773438 58.648438-7.792969 12.820312c17.972656 10.921875 31.71875 23.515625 38.539062 30.304688-8.117187 8.054687-26.039062 24.300781-49.324219 36.316406 4.84375-7.382813 8.261719-15.84375 9.84375-25.035156l-14.78125-2.546876c-4.21875 24.523438-25.375 42.320313-50.308593 42.320313-28.144531 0-51.046875-22.898437-51.046875-51.046875 0-3.667969.390625-7.246094 1.128906-10.691406 5.09375 7.355468 13.597656 12.179687 23.203125 12.179687.789063 0 1.574219-.03125 2.347656-.09375.722657 12.8125 11.378907 23.015625 24.367188 23.015625 13.460937 0 24.410156-10.949218 24.410156-24.410156 0-12.992188-10.203125-23.644531-23.015625-24.371094.0625-.773437.097656-1.558594.097656-2.347656 0-9.605469-4.828125-18.105469-12.183594-23.203125 3.449219-.738281 7.027344-1.125 10.691407-1.125 24.933593 0 46.085937 17.796875 50.308593 42.320313l14.78125-2.546876c-3.117187-18.113281-13.375-33.394531-27.601562-43.175781 29.5625-5.4375 57.523438-17.324219 82.308594-35.15625l-8.761719-12.175781c-32.492187 23.375-70.886719 35.730469-111.035156 35.730469-40.144531 0-78.539063-12.355469-111.03125-35.730469l-8.761719 12.175781c24.816406 17.851563 52.816406 29.746094 82.417969 35.175781-17.304688 11.921876-28.671875 31.871094-28.671875 54.429688 0 13.433594 4.03125 25.941406 10.949218 36.382812-23.363281-12.023437-41.34375-28.328124-49.472656-36.394531 6.964844-6.945312 21.171875-19.953125 39.859375-31.09375l-7.683593-12.886719c-28.84375 17.203126-47.421876 38.15625-48.199219 39.039063l-4.35156275 4.953125 4.35156275 4.949219c2.195312 2.496093 54.472656 61.097656 120.59375 61.097656 66.125 0 118.402343-58.601563 120.59375-61.097656l4.351562-4.949219-4.351562-4.953125c-.75-.855469-18.730469-21.136719-46.769531-38.179687zm-113.75 16.414062c0-7.285156 5.925781-13.207031 13.207031-13.207031 7.285156 0 13.210937 5.921875 13.210937 13.207031 0 7.28125-5.925781 13.207031-13.210937 13.207031-7.28125 0-13.207031-5.925781-13.207031-13.207031zm49.335937 26.71875c0 5.1875-4.21875 9.410156-9.410156 9.410156-5.1875 0-9.410157-4.222656-9.410157-9.410156 0-5.191406 4.222657-9.410156 9.410157-9.410156 5.191406 0 9.410156 4.222656 9.410156 9.410156zm0 0"/><path d="m507.214844 106.730469 4.355468-4.949219-4.355468-4.953125c-.75-.855469-18.730469-21.136719-46.769532-38.179687l-7.789062 12.820312c17.972656 10.921875 31.714844 23.511719 38.535156 30.304688-8.042968 7.980468-25.707031 24.003906-48.679687 35.980468 4.726562-7.304687 8.066406-15.648437 9.625-24.703125l-14.78125-2.542969c-4.152344 24.125-24.695313 41.738282-49.09375 42.304688-.472657.007812-.945313.011719-1.417969.015625-28.054688-.113281-50.84375-22.96875-50.84375-51.046875 0-3.667969.390625-7.246094 1.128906-10.695312 5.09375 7.355468 13.59375 12.183593 23.199219 12.183593.792969 0 1.574219-.03125 2.351563-.097656.722656 12.816406 11.375 23.019531 24.367187 23.019531 13.460937 0 24.410156-10.953125 24.410156-24.410156 0-12.992188-10.203125-23.648438-23.015625-24.371094.0625-.773437.097656-1.558594.097656-2.347656 0-9.609375-4.828124-18.109375-12.183593-23.203125 3.449219-.738281 7.027343-1.128906 10.691406-1.128906 24.929687 0 46.085937 17.800781 50.308594 42.320312l14.78125-2.542969c-3.117188-18.117187-13.375-33.398437-27.601563-43.175781 29.5625-5.4375 57.523438-17.324219 82.308594-35.15625l-8.761719-12.175781c-32.492187 23.375-70.886719 35.730469-111.035156 35.730469-40.144531 0-78.539063-12.355469-111.03125-35.730469l-8.761719 12.175781c24.8125 17.851563 52.816406 29.746094 82.417969 35.175781-17.304687 11.921876-28.671875 31.871094-28.671875 54.429688 0 13.574219 4.117188 26.207031 11.167969 36.710938-23.675781-12.050782-41.914063-28.582032-50.117188-36.722657 6.964844-6.945312 21.171875-19.953125 39.859375-31.09375l-7.683594-12.886719c-28.84375 17.203126-47.421874 38.15625-48.199218 39.039063l-4.351563 4.953125 4.351563 4.949219c2.195312 2.496093 54.472656 61.097656 120.59375 61.097656 66.125 0 118.402344-58.601563 120.59375-61.097656zm-160.09375-31.667969c0-7.285156 5.925781-13.207031 13.207031-13.207031 7.285156 0 13.210937 5.921875 13.210937 13.207031 0 7.28125-5.925781 13.207031-13.210937 13.207031-7.28125 0-13.207031-5.925781-13.207031-13.207031zm49.335937 26.71875c0 5.1875-4.21875 9.410156-9.410156 9.410156-5.1875 0-9.410156-4.222656-9.410156-9.410156 0-5.191406 4.222656-9.410156 9.410156-9.410156 5.191406 0 9.410156 4.222656 9.410156 9.410156zm0 0"/><g fill="#fff"><path d="m387.050781 146.375c-11.914062 0-23.113281-4.640625-31.535156-13.0625l10.605469-10.605469c5.589844 5.589844 13.023437 8.667969 20.925781 8.667969 7.90625 0 15.335937-3.078125 20.925781-8.667969 1.566406-1.566406 2.953125-3.300781 4.125-5.152343l12.683594 8.007812c-1.761719 2.789062-3.847656 5.398438-6.199219 7.75-8.425781 8.421875-19.621093 13.0625-31.53125 13.0625zm42.703125-31.730469-14.367187-4.316406c.835937-2.769531 1.253906-5.644531 1.253906-8.546875 0-1.097656-.0625-2.210938-.183594-3.300781l14.910157-1.660157c.183593 1.640626.273437 3.3125.273437 4.960938.003906 4.363281-.632813 8.691406-1.886719 12.863281zm-15.226562-23.878906c-1.488282-3.714844-3.691406-7.050781-6.550782-9.914063l10.605469-10.605468c4.304688 4.304687 7.625 9.332031 9.871094 14.945312zm0 0"/><path d="m124.949219 146.375c-11.910157 0-23.109375-4.640625-31.53125-13.0625l10.605469-10.605469c5.589843 5.589844 13.023437 8.667969 20.925781 8.667969 7.90625 0 15.335937-3.078125 20.925781-8.667969 1.566406-1.566406 2.953125-3.300781 4.125-5.152343l12.683594 8.007812c-1.761719 2.789062-3.847656 5.398438-6.199219 7.75-8.421875 8.421875-19.621094 13.0625-31.535156 13.0625zm42.707031-31.730469-14.367188-4.316406c.835938-2.769531 1.257813-5.644531 1.257813-8.546875 0-1.097656-.0625-2.210938-.1875-3.300781l14.910156-1.660157c.183594 1.640626.273438 3.3125.273438 4.960938.003906 4.363281-.632813 8.691406-1.886719 12.863281zm-15.226562-23.878906c-1.488282-3.714844-3.691407-7.050781-6.550782-9.914063l10.605469-10.605468c4.304687 4.304687 7.625 9.332031 9.871094 14.945312zm0 0"/></g></svg>